<svg xmlns="http://www.w3.org/2000/svg" width="1024" height="1024" fill="none"><rect width="1024" height="1024" fill="#16171D" rx="100"/><path fill="#F9F8F6" d="M180 634.938V403.18h47.689l2.95 30.56c5.899-8.544 12.455-15.116 19.665-19.716 7.539-4.929 15.569-8.544 24.091-10.844a99.556 99.556 0 0 1 26.056-3.45c17.372 0 31.629 3.614 42.773 10.843 11.472 7.23 20.321 17.088 26.548 29.574 6.228-8.872 13.275-16.265 21.141-22.18 7.866-6.243 16.552-10.844 26.057-13.801 9.505-2.958 19.665-4.436 30.481-4.436 19.338 0 34.907 4.272 46.706 12.815 12.127 8.215 20.813 19.387 26.057 33.517 5.572 14.13 8.358 30.395 8.358 48.797v168.078h-51.131V515.068c0-7.887-.328-15.773-.983-23.659-.656-7.887-2.622-15.28-5.9-22.181-2.95-7.229-7.374-12.979-13.274-17.251-5.572-4.601-13.602-6.901-24.09-6.901-10.161 0-18.682 2.3-25.565 6.901-6.556 4.6-11.964 10.844-16.224 18.73-3.934 7.558-6.883 15.773-8.85 24.645a146.224 146.224 0 0 0-2.458 26.616v140.969h-51.131V514.575c0-7.558-.327-15.28-.983-23.166-.655-7.887-2.294-15.28-4.916-22.181-2.622-7.229-7.047-12.979-13.274-17.251-5.9-4.601-13.93-6.901-24.091-6.901-14.749 0-26.22 4.272-34.414 12.816-7.867 8.215-13.275 18.401-16.224 30.559-2.95 11.83-4.425 23.166-4.425 34.01v140.476H180v-27.999Z"/><path fill="#F9F8F6" d="M701.393 263.514c37.866-45.241 100.978-39.163 130.009-20.431 19.819 12.788 10.099 39.251 1.263 45.619-12.923 9.314-31.872 9.695-39.13 2.368-16.409-16.565-25.865-31.687-35.342-30.294-33.497 4.926-50.987 102.561-62.279 151.672h62.274l-7.574 32.819h-62.135c-12.365 56.498-29.146 140.868-38.837 190.372-13.885 70.918-45.442 121.174-82.046 143.894-21.449 13.313-44.178 17.905-78.258 12.622-22.156-3.434-27.349-24.59-27.77-35.109-.634-15.788 8.837-28.002 27.77-28.002 22.72 0 27.769 17.904 34.08 27.768 6.61 10.332 15.259 7.733 18.934 5.284 13.253-8.836 21.358-16.155 27.769-33.052 6.885-18.147 42.576-179.879 62.65-283.777h-56.344L584 412.448h54.926c7.233-40.747 13.045-89.889 62.467-148.934Z"/></svg>